<svg width="13" height="12" viewBox="0 0 13 12" fill="none" xmlns="http://www.w3.org/2000/svg">
<path d="M10.7617 6C10.7617 6.13281 10.7148 6.25781 10.6211 6.35156L9.91016 7.0625L7.08196 9.89062C6.98826 9.98437 6.86326 10.0312 6.73046 10.0312C6.59766 10.0312 6.47266 9.98437 6.37886 9.89062L5.66796 9.17969C5.57416 9.08594 5.51946 8.96094 5.51946 8.82812C5.51946 8.69531 5.57416 8.57031 5.66796 8.47656L7.14446 7H3.22266C2.94916 7 2.72266 6.77344 2.72266 6.5V5.5C2.72266 5.22656 2.94916 5 3.22266 5H7.14446L5.66796 3.52344C5.57416 3.42969 5.52726 3.30469 5.52726 3.17187C5.52726 3.03906 5.57416 2.91406 5.66796 2.82031L6.37886 2.10937C6.47266 2.01562 6.59766 1.96875 6.73046 1.96875C6.86326 1.96875 6.98826 2.01562 7.08196 2.10937L9.91016 4.9375L10.6211 5.64844C10.7148 5.74219 10.7617 5.86719 10.7617 6ZM12.7227 6C12.7227 2.6875 10.0352 0 6.72266 0C3.41016 0 0.722656 2.6875 0.722656 6C0.722656 9.3125 3.41016 12 6.72266 12C10.0352 12 12.7227 9.3125 12.7227 6Z" fill="white"/>
</svg>
