<svg width="15" height="15" viewBox="0 0 15 15" fill="none" xmlns="http://www.w3.org/2000/svg">
<path d="M1.77779 3.5556C2.75964 3.5556 3.55559 2.75965 3.55559 1.7778C3.55559 0.795949 2.75964 0 1.77779 0C0.795944 0 0 0.795949 0 1.7778C0 2.75965 0.795944 3.5556 1.77779 3.5556Z" fill="black"/>
<path d="M5.18384 4.86946H8.13023V6.21921C8.13023 6.21921 8.92976 4.62013 11.1052 4.62013C13.0458 4.62013 14.6534 5.57611 14.6534 8.49001V14.6346H11.6001V9.23459C11.6001 7.51564 10.6824 7.32659 9.98306 7.32659C8.5318 7.32659 8.28335 8.57839 8.28335 9.45879V14.6346H5.18384V4.86946Z" fill="black"/>
<path d="M0.228027 4.86943H3.32754V14.6346H0.228027V4.86943Z" fill="black"/>
</svg>
