<svg width="33" height="36" viewBox="0 0 33 36" fill="none" xmlns="http://www.w3.org/2000/svg">
<path d="M27.4002 3.6H8.2002V26.8H27.4002V3.6Z" fill="white"/>
<path d="M28.0001 27.3H7.6001V3H28.0001V27.3ZM8.7001 26.2H26.8001V4.2H8.7001V26.2Z" fill="#02274C"/>
<path d="M23.8001 7.1H4.6001V30.3H23.8001V7.1Z" fill="#72C8C5"/>
<path d="M24.4 30.9H4V6.6H24.4V30.9ZM5.2 29.7H23.3V7.7H5.2V29.7Z" fill="#02274C"/>
<path d="M27.5 36H4.5C2 36 0 34.1 0 31.7V4.3C0 1.9 2 0 4.5 0H9V1.2H4.5C2.7 1.2 1.3 2.6 1.3 4.3V31.8C1.3 33.5 2.8 34.9 4.5 34.9H27.6C29.4 34.9 30.8 33.5 30.8 31.8V4.3C30.8 2.6 29.3 1.2 27.6 1.2H10.8V0H27.5C30 0 32 1.9 32 4.3V31.8C32 34.1 30 36 27.5 36Z" fill="#02274C"/>
<path d="M10.2 13.3V26.6H12.9L31.6862 4.71496L30.0629 1.3064L12.9 22V13.3" fill="#02274C"/>
<path d="M12.8999 20.1951V22L29.5939 2.08098L30.4999 1L29.5939 0.436813L28.7952 1.42275L12.8999 20.1951Z" fill="white"/>
<path d="M13.8001 1H12.6001V3.2H13.8001V1Z" fill="#02274C"/>
<path d="M28.02 22.98V24.18H32.02V22.98H28.02Z" fill="#02274C"/>
</svg>
