<svg width="15" height="11" viewBox="0 0 15 11" fill="none" xmlns="http://www.w3.org/2000/svg">
<path d="M14.0901 3.54687V9.75C14.0901 10.4375 13.5271 11 12.8401 11H1.34009C0.652088 11 0.0900879 10.4375 0.0900879 9.75V3.54687C0.324088 3.80469 0.590089 4.03125 0.879089 4.22656C2.17609 5.10937 3.48808 5.99219 4.76208 6.92187C5.41808 7.40625 6.23009 8 7.08209 8H7.09009H7.0981C7.9491 8 8.76209 7.40625 9.41809 6.92187C10.6911 6 12.0041 5.10937 13.3091 4.22656C13.5901 4.03125 13.8551 3.80469 14.0901 3.54687ZM14.0901 1.25C14.0901 2.125 13.4411 2.91406 12.7541 3.39062C11.5351 4.23437 10.3091 5.07812 9.0981 5.92969C8.5901 6.28125 7.7301 7 7.0981 7H7.09009H7.08209C6.44909 7 5.59009 6.28125 5.08209 5.92969C3.87109 5.07812 2.6451 4.23437 1.4341 3.39062C0.879097 3.01562 0.0900879 2.13281 0.0900879 1.42187C0.0900879 0.65625 0.504088 0 1.34009 0H12.8401C13.5201 0 14.0901 0.5625 14.0901 1.25Z" fill="#40A5A2"/>
</svg>
