<svg width="12" height="12" viewBox="0 0 12 12" fill="none" xmlns="http://www.w3.org/2000/svg">
<path d="M10 8.32031C10 8.28125 10 8.23437 9.98438 8.19531C9.9375 8.05469 8.79688 7.47656 8.57813 7.35156C8.42969 7.26562 8.25 7.09375 8.07031 7.09375C7.72656 7.09375 7.21875 8.11719 6.91406 8.11719C6.75781 8.11719 6.5625 7.97656 6.42188 7.89844C5.39063 7.32031 4.67969 6.60937 4.10156 5.57812C4.02344 5.4375 3.88281 5.24219 3.88281 5.08594C3.88281 4.78125 4.90625 4.27344 4.90625 3.92969C4.90625 3.75 4.73438 3.57031 4.64844 3.42187C4.52344 3.20312 3.94531 2.0625 3.80469 2.01562C3.76563 2 3.71875 2 3.67969 2C3.47656 2 3.07813 2.09375 2.89063 2.17187C2.375 2.40625 2 3.39062 2 3.92969C2 4.45312 2.21094 4.92969 2.39063 5.41406C3.01563 7.125 4.875 8.98437 6.58594 9.60937C7.07031 9.78906 7.54688 10 8.07031 10C8.60938 10 9.59375 9.625 9.82813 9.10937C9.90625 8.92188 10 8.52344 10 8.32031ZM12 2.25V9.75C12 10.9922 10.9922 12 9.75 12H2.25C1.00781 12 0 10.9922 0 9.75V2.25C0 1.00781 1.00781 0 2.25 0H9.75C10.9922 0 12 1.00781 12 2.25Z" fill="#40A5A2"/>
</svg>
