<svg width="64" height="64" viewBox="0 0 64 64" fill="none" xmlns="http://www.w3.org/2000/svg">
<circle cx="32" cy="32" r="32" fill="#40A5A2"/>
<path d="M26.9575 29.8816L24.5522 32.2869L29.091 36.8256H29.0906C29.4095 37.1441 29.8421 37.3234 30.2932 37.3234C30.7443 37.3234 31.1769 37.1442 31.4958 36.8256L40.0058 28.3157L37.6005 25.9104L30.2932 33.2173L26.9575 29.8816Z" fill="white"/>
<path d="M32.6733 16.7148V16.7139L44.0122 20.6768V20.6777L45.3462 21.1475V33.8291C45.3427 36.1014 44.6848 38.3249 43.4507 40.2324C42.2938 42.0207 40.6762 43.4613 38.772 44.4043L38.3882 44.5859L32.8169 47.0938H32.8159L31.9956 47.4639L31.1753 47.0938H31.1743L25.603 44.5859C23.533 43.6517 21.7762 42.1408 20.5425 40.2344C19.3852 38.4461 18.7338 36.3808 18.6538 34.2578L18.646 33.833V21.1523L19.98 20.6826L19.979 20.6816L31.3237 16.7129L31.3228 16.7119L31.9956 16.4805L32.6733 16.7148Z" stroke="white" stroke-width="2.8"/>
<path d="M26.9575 29.8816L24.5522 32.2869L29.091 36.8256C29.4099 37.1441 29.8421 37.3234 30.2932 37.3234C30.7443 37.3234 31.1769 37.1442 31.4958 36.8256L40.0058 28.3157L37.6005 25.9104L30.2932 33.2173L26.9575 29.8816Z" fill="white"/>
</svg>
