<svg width="18" height="18" viewBox="0 0 18 18" fill="none" xmlns="http://www.w3.org/2000/svg">
<path d="M9 18C13.9706 18 18 13.9706 18 9C18 4.02944 13.9706 0 9 0C4.02944 0 0 4.02944 0 9C0 13.9706 4.02944 18 9 18Z" fill="black"/>
<path d="M7.35312 13.7475C11.3446 13.7475 13.5271 10.44 13.5271 7.5735C13.5271 7.479 13.5271 7.3845 13.5226 7.2945C13.9456 6.9885 14.3146 6.606 14.6071 6.1695C14.2201 6.3405 13.8016 6.4575 13.3606 6.5115C13.8106 6.2415 14.1526 5.8185 14.3146 5.31C13.8961 5.5575 13.4326 5.7375 12.9376 5.8365C12.5416 5.4135 11.9791 5.1525 11.3536 5.1525C10.1566 5.1525 9.18462 6.1245 9.18462 7.3215C9.18462 7.4925 9.20262 7.659 9.24312 7.8165C7.43862 7.7265 5.84112 6.8625 4.77012 5.5485C4.58562 5.868 4.47762 6.2415 4.47762 6.6375C4.47762 7.389 4.86012 8.055 5.44512 8.442C5.08962 8.433 4.75662 8.334 4.46412 8.172C4.46412 8.181 4.46412 8.19 4.46412 8.199C4.46412 9.252 5.21112 10.125 6.20562 10.3275C6.02562 10.377 5.83212 10.404 5.63412 10.404C5.49462 10.404 5.35962 10.3905 5.22462 10.3635C5.49912 11.2275 6.30012 11.853 7.24962 11.871C6.50712 12.4515 5.57112 12.798 4.55412 12.798C4.37862 12.798 4.20762 12.789 4.03662 12.7665C4.98612 13.3875 6.12912 13.7475 7.35312 13.7475Z" fill="white"/>
</svg>
