<svg width="18" height="18" viewBox="0 0 18 18" fill="none" xmlns="http://www.w3.org/2000/svg">
<path d="M9 0C13.95 0 18 4.05 18 9C18 13.45 14.75 17.1504 10.5 17.9004L10.4473 17.8584C10.4647 17.855 10.4825 17.8531 10.5 17.8496V11.5H12.5L12.9004 9H10.5V7.25C10.5 6.55008 10.7499 6.00013 11.8496 6H13V3.7002C12.35 3.6002 11.65 3.5 11 3.5C8.95 3.5 7.5 4.75 7.5 7V9H5.25V11.5H7.5V17.8496C7.51714 17.853 7.53462 17.8551 7.55176 17.8584L7.5 17.9004C3.25 17.1504 0 13.45 0 9C0 4.05 4.05 0 9 0Z" fill="black"/>
</svg>
