<svg width="64" height="64" viewBox="0 0 64 64" fill="none" xmlns="http://www.w3.org/2000/svg">
<circle cx="32" cy="32" r="32" fill="#40A5A2"/>
<path d="M16.0036 15C15.7371 14.9989 15.4813 15.1044 15.2927 15.293C15.1044 15.4814 14.9989 15.7375 15 16.004V27.8733C14.9989 28.1398 15.1044 28.3959 15.2927 28.5843C15.4813 28.7729 15.7371 28.8784 16.0036 28.8772H20.056L22.1243 31.8089H22.1245C22.3115 32.0762 22.6173 32.2355 22.9437 32.2355C23.2701 32.2355 23.5759 32.0762 23.7631 31.8089L25.8294 28.8772H38.1708L40.2449 31.8089H40.2446C40.4321 32.074 40.7365 32.2313 41.061 32.2313C41.3858 32.2313 41.6901 32.074 41.8774 31.8089L43.9437 28.8772H48.0043C48.5564 28.875 49.0023 28.4255 49 27.8733V16.0039C49.0022 15.4518 48.5564 15.0023 48.0043 15L16.0036 15ZM17.0019 17.0001H47V26.8773H43.4257C43.1009 26.8762 42.796 27.0327 42.6074 27.2972L41.0567 29.4984L39.506 27.2972C39.3177 27.0327 39.0128 26.8762 38.6877 26.8773H25.3121C24.9871 26.8762 24.6821 27.0327 24.4938 27.2972L22.9431 29.4984L21.3924 27.2972C21.2038 27.0327 20.8989 26.8762 20.5741 26.8773H17.0021L17.0019 17.0001ZM22.7222 18.8224C20.9439 18.8224 19.4822 20.2861 19.4822 22.0646C19.4822 23.843 20.9439 25.3048 22.7222 25.3048C24.5005 25.3048 25.9622 23.843 25.9622 22.0646C25.9622 20.2862 24.5005 18.8224 22.7222 18.8224V18.8224ZM32.0009 18.8224C30.2226 18.8224 28.7589 20.2861 28.7589 22.0646C28.7589 23.843 30.2225 25.3048 32.0009 25.3048C33.7793 25.3048 35.2409 23.843 35.2409 22.0646C35.2409 20.2862 33.7792 18.8224 32.0009 18.8224ZM41.2853 18.8224C39.507 18.8224 38.0375 20.2861 38.0375 22.0646C38.0375 23.843 39.5069 25.3048 41.2853 25.3048C43.0637 25.3048 44.5253 23.843 44.5253 22.0646C44.5253 20.2862 43.0637 18.8224 41.2853 18.8224ZM22.7222 20.8243C23.42 20.8243 23.9624 21.3667 23.9624 22.0645C23.9624 22.7623 23.42 23.3047 22.7222 23.3047C22.0245 23.3047 21.4821 22.7623 21.4821 22.0645C21.4821 21.3667 22.0245 20.8243 22.7222 20.8243V20.8243ZM32.0009 20.8243C32.6987 20.8243 33.2411 21.3667 33.2411 22.0645C33.2411 22.7623 32.6987 23.3047 32.0009 23.3047C31.3032 23.3047 30.7608 22.7623 30.7608 22.0645C30.7608 21.3667 31.3032 20.8243 32.0009 20.8243V20.8243ZM41.2853 20.8243C41.9831 20.8243 42.5255 21.3667 42.5255 22.0645C42.5255 22.7623 41.9831 23.3047 41.2853 23.3047C40.5876 23.3047 40.0393 22.7623 40.0393 22.0645C40.0393 21.3667 40.5876 20.8243 41.2853 20.8243V20.8243ZM22.9429 33.498C20.5268 33.498 18.5506 35.4823 18.5506 37.8983C18.5506 39.1612 19.0986 40.2946 19.9588 41.0976C18.1765 42.1322 16.9707 44.0569 16.9707 46.2617V48.0039C16.9726 48.5539 17.4184 48.9989 17.9687 49H27.9195C28.4716 49.0022 28.921 48.5561 28.9233 48.0039V46.2617C28.9233 44.0566 27.7141 42.1319 25.9294 41.0976C26.792 40.2946 27.3434 39.1615 27.3434 37.8983C27.3434 35.4823 25.3591 33.498 22.9433 33.498H22.9429ZM41.0568 33.498C38.6409 33.498 36.6645 35.4823 36.6645 37.8983C36.6645 39.1612 37.2124 40.2946 38.0726 41.0976C36.2904 42.1322 35.0845 44.0569 35.0845 46.2617V48.0039C35.0865 48.5539 35.5323 48.9989 36.0822 49H46.0309C46.5833 49.0022 47.0328 48.5561 47.035 48.0039V46.2617C47.035 44.0566 45.8278 42.1319 44.043 41.0976C44.9057 40.2946 45.457 39.1615 45.457 37.8983C45.457 35.4823 43.4728 33.498 41.0569 33.498H41.0568ZM22.9429 35.498C24.2782 35.498 25.3412 36.563 25.3412 37.8983C25.3412 39.2337 24.2782 40.289 22.9429 40.289C21.6076 40.289 20.5524 39.2338 20.5524 37.8983C20.5524 36.5629 21.6076 35.498 22.9429 35.498V35.498ZM41.0568 35.498C42.3921 35.498 43.4551 36.563 43.4551 37.8983C43.4551 39.2337 42.3921 40.289 41.0568 40.289C39.7215 40.289 38.6663 39.2338 38.6663 37.8983C38.6663 36.5629 39.7214 35.498 41.0568 35.498V35.498ZM22.9429 42.291C25.1624 42.291 26.9212 44.0422 26.9212 46.2618V47.0001H18.9724V46.2618C18.9724 44.0422 20.7234 42.291 22.9429 42.291H22.9429ZM41.0568 42.291C43.2762 42.291 45.035 44.0422 45.035 46.2618V47.0001H37.0862V46.2618C37.0862 44.0422 38.8373 42.291 41.0567 42.291H41.0568Z" fill="white"/>
</svg>
