<svg width="16" height="16" viewBox="0 0 16 16" fill="none" xmlns="http://www.w3.org/2000/svg">
<path d="M2.55172 4.4199C3.53357 4.4199 4.32952 3.62395 4.32952 2.6421C4.32952 1.66025 3.53357 0.864304 2.55172 0.864304C1.56987 0.864304 0.773926 1.66025 0.773926 2.6421C0.773926 3.62395 1.56987 4.4199 2.55172 4.4199Z" fill="#F2EFE6"/>
<path d="M5.95776 5.73377H8.90415V7.08352C8.90415 7.08352 9.70368 5.48444 11.8791 5.48444C13.8197 5.48444 15.4273 6.44042 15.4273 9.35432V15.4989H12.374V10.0989C12.374 8.37995 11.4563 8.1909 10.757 8.1909C9.30572 8.1909 9.05727 9.4427 9.05727 10.3231V15.4989H5.95776V5.73377Z" fill="#F2EFE6"/>
<path d="M1.00195 5.73373H4.10146V15.4989H1.00195V5.73373Z" fill="#F2EFE6"/>
</svg>
