<svg width="64" height="64" viewBox="0 0 64 64" fill="none" xmlns="http://www.w3.org/2000/svg">
<circle cx="32" cy="32" r="32" fill="#40A5A2"/>
<path d="M38.2063 16.2903H31.5607C30.3411 13.7246 27.7754 12 24.7889 12C20.6248 12 17.26 15.3649 17.26 19.5289C17.26 22.347 18.8584 24.8285 21.1715 26.1326V48.8454L24.3261 52L27.5648 48.7612L30.7614 52L33.9579 48.7612L37.1545 52L40.3932 48.7612L43.5898 52L46.7444 48.8454V24.8708L38.2063 16.2903ZM38.8374 19.9075L43.1277 24.1978L38.8374 24.1975V19.9075ZM21.1298 17.1314C21.1298 16.4584 21.6767 15.8695 22.3917 15.8695C23.0647 15.8695 23.6536 16.4164 23.6536 17.1314C23.6536 17.8464 23.1067 18.3933 22.3917 18.3933C21.6767 18.3933 21.1298 17.8464 21.1298 17.1314ZM22.1813 22.8098C22.0132 22.8098 21.8028 22.7256 21.6767 22.5994C21.3821 22.3049 21.3821 21.8425 21.6767 21.5479L26.7662 16.4165C27.0607 16.1219 27.5231 16.1219 27.8177 16.4165C28.1123 16.711 28.1123 17.1734 27.8177 17.468L22.7282 22.5994C22.5598 22.7256 22.3917 22.8098 22.1813 22.8098ZM28.4062 21.8844C28.4062 22.5994 27.8593 23.1463 27.1443 23.1463C26.4713 23.1463 25.8824 22.5995 25.8824 21.8844C25.8824 21.2114 26.4293 20.6648 27.1443 20.6648C27.8174 20.6645 28.4062 21.2114 28.4062 21.8844ZM44.6417 47.9201L43.5902 48.9716L40.3514 45.7751L37.1549 48.9716L33.9583 45.7751L30.7196 48.9716L27.523 45.7751L24.2843 48.9716L23.2327 47.9201V26.8897C23.7374 26.9739 24.2423 27.0578 24.7469 27.0578C28.911 27.0578 32.2758 23.6929 32.2758 19.5289C32.2758 19.1504 32.2339 18.772 32.1916 18.3932H36.7342V26.3006H44.6416L44.6417 47.9201Z" fill="white"/>
<path d="M27.1023 39.9705H40.7721V42.0735H27.1023V39.9705Z" fill="white"/>
<path d="M27.1023 35.1335H40.7721V37.2366H27.1023V35.1335Z" fill="white"/>
<path d="M27.1023 30.3385H40.7721V32.4415H27.1023V30.3385Z" fill="white"/>
</svg>
