<svg width="13" height="12" viewBox="0 0 13 12" fill="none" xmlns="http://www.w3.org/2000/svg">
<path d="M7.50806 3.25V6.75C7.50806 6.89062 7.39806 7 7.25806 7H4.75806C4.61706 7 4.50806 6.89062 4.50806 6.75V6.25C4.50806 6.10937 4.61706 6 4.75806 6H6.50806V3.25C6.50806 3.10937 6.61706 3 6.75806 3H7.25806C7.39806 3 7.50806 3.10937 7.50806 3.25ZM10.7581 6C10.7581 3.65625 8.85206 1.75 6.50806 1.75C4.16406 1.75 2.25806 3.65625 2.25806 6C2.25806 8.34375 4.16406 10.25 6.50806 10.25C8.85206 10.25 10.7581 8.34375 10.7581 6ZM12.5081 6C12.5081 9.3125 9.82006 12 6.50806 12C3.19506 12 0.508057 9.3125 0.508057 6C0.508057 2.6875 3.19506 0 6.50806 0C9.82006 0 12.5081 2.6875 12.5081 6Z" fill="#40A5A2"/>
</svg>
